<svg width="135" height="46" viewBox="0 0 135 46" fill="none" xmlns="http://www.w3.org/2000/svg">
<g clip-path="url(#clip0_704_202)">
<mask id="mask0_704_202" style="mask-type:luminance" maskUnits="userSpaceOnUse" x="0" y="0" width="135" height="46">
<path d="M135 0H0V46H135V0Z" fill="white"/>
</mask>
<g mask="url(#mask0_704_202)">
<g filter="url(#filter0_d_704_202)">
<path d="M17.7204 3.66064H25.3198V29.0158C25.3198 31.3595 24.7931 33.3955 23.7395 35.1237C22.6979 36.852 21.2478 38.1836 19.3894 39.1188C17.531 40.0539 15.3707 40.5215 12.9086 40.5215C10.7187 40.5215 8.73007 40.1368 6.94266 39.3674C5.16709 38.5861 3.75848 37.4024 2.71681 35.8162C1.67514 34.2182 1.16023 32.2118 1.17207 29.797H8.82476C8.84844 30.7558 9.04375 31.5785 9.4107 32.2651C9.78949 32.9398 10.3044 33.4606 10.9555 33.8276C11.6183 34.1827 12.3996 34.3603 13.2992 34.3603C14.2462 34.3603 15.0452 34.159 15.6962 33.7566C16.3591 33.3423 16.8622 32.7386 17.2055 31.9455C17.5487 31.1524 17.7204 30.1758 17.7204 29.0158V3.66064Z" fill="white"/>
<path d="M31.6768 40.0243V3.66064H46.2365C48.9117 3.66064 51.143 4.05718 52.9304 4.85027C54.7178 5.64336 56.0613 6.74421 56.9609 8.15282C57.8605 9.54961 58.3104 11.1595 58.3104 12.9824C58.3104 14.4029 58.0263 15.6517 57.4581 16.7289C56.8899 17.7942 56.1087 18.6701 55.1143 19.3567C54.1319 20.0314 53.0073 20.5108 51.7408 20.7949V21.15C53.1257 21.2092 54.4219 21.5998 55.6293 22.3219C56.8485 23.044 57.8369 24.056 58.5945 25.3581C59.352 26.6484 59.7308 28.1872 59.7308 29.9746C59.7308 31.904 59.2514 33.6264 58.2926 35.1415C57.3456 36.6448 55.9429 37.8344 54.0845 38.7104C52.2261 39.5863 49.9356 40.0243 47.2131 40.0243H31.6768ZM39.365 33.7388H45.6328C47.7753 33.7388 49.3378 33.3304 50.3203 32.5137C51.3028 31.6851 51.794 30.5842 51.794 29.2111C51.794 28.2049 51.5514 27.3172 51.066 26.5478C50.5807 25.7783 49.8882 25.1746 48.9886 24.7367C48.1008 24.2987 47.0414 24.0797 45.8104 24.0797H39.365V33.7388ZM39.365 18.8773H45.0646C46.1181 18.8773 47.0533 18.6938 47.87 18.3269C48.6986 17.9481 49.3497 17.4154 49.8231 16.7289C50.3085 16.0423 50.5511 15.2196 50.5511 14.2608C50.5511 12.9469 50.0836 11.8875 49.1484 11.0826C48.2251 10.2776 46.9112 9.87512 45.2067 9.87512H39.365V18.8773Z" fill="#66747B"/>
</g>
</g>
</g>
<defs>
<filter id="filter0_d_704_202" x="-2.82812" y="3.66064" width="66.5586" height="44.8608" filterUnits="userSpaceOnUse" color-interpolation-filters="sRGB">
<feFlood flood-opacity="0" result="BackgroundImageFix"/>
<feColorMatrix in="SourceAlpha" type="matrix" values="0 0 0 0 0 0 0 0 0 0 0 0 0 0 0 0 0 0 127 0" result="hardAlpha"/>
<feOffset dy="4"/>
<feGaussianBlur stdDeviation="2"/>
<feComposite in2="hardAlpha" operator="out"/>
<feColorMatrix type="matrix" values="0 0 0 0 0 0 0 0 0 0 0 0 0 0 0 0 0 0 0.25 0"/>
<feBlend mode="normal" in2="BackgroundImageFix" result="effect1_dropShadow_704_202"/>
<feBlend mode="normal" in="SourceGraphic" in2="effect1_dropShadow_704_202" result="shape"/>
</filter>
<clipPath id="clip0_704_202">
<rect width="135" height="46" fill="white"/>
</clipPath>
</defs>
</svg>
