<svg width="204" height="204" viewBox="0 0 204 204" fill="none" xmlns="http://www.w3.org/2000/svg">
<g clip-path="url(#clip0_701_536)">
<path d="M187.639 69.9019C193.092 67.8584 199.226 70.6141 200.696 76.2482C206.238 97.4861 204.802 120.051 196.436 140.546C186.737 164.31 168.435 183.543 145.182 194.409C121.928 205.275 95.4335 206.975 70.9823 199.169C46.5311 191.364 25.9213 174.628 13.2644 152.299C0.607559 129.97 -3.16595 103.69 2.69673 78.7014C8.55941 53.7132 23.6272 31.8538 44.8943 17.484C66.1614 3.11422 92.0643 -2.70957 117.435 1.17447C139.317 4.52427 159.415 14.8825 174.791 30.5464C178.869 34.7018 178.083 41.3803 173.529 45.0088C168.975 48.6372 162.385 47.827 158.195 43.783C146.212 32.2153 130.877 24.564 114.244 22.0177C94.1183 18.9366 73.5703 23.5564 56.6996 34.9556C39.829 46.3548 27.876 63.6953 23.2253 83.5178C18.5746 103.34 21.5681 124.188 31.6084 141.901C41.6488 159.614 57.9981 172.89 77.3945 179.082C96.791 185.274 117.809 183.925 136.255 175.305C154.701 166.686 169.219 151.429 176.914 132.578C183.273 116.999 184.584 99.9115 180.815 83.6878C179.497 78.0162 182.187 71.9455 187.639 69.9019Z" fill="url(#paint0_linear_701_536)"/>
<path d="M75.6561 89.7998C71.0481 89.7998 67.1601 92.6438 67.1601 96.9638C67.1601 99.0158 68.2761 100.636 69.9681 101.644C68.0601 102.616 66.0801 104.668 66.0801 107.548C66.0801 112.552 70.6521 115.504 75.6561 115.504C80.6601 115.504 85.2321 112.552 85.2321 107.548C85.2321 104.668 83.2521 102.616 81.3441 101.644C83.0361 100.636 84.1521 99.0158 84.1521 96.9638C84.1521 92.6438 80.2641 89.7998 75.6561 89.7998ZM78.7521 107.188C78.7521 108.88 77.4921 110.104 75.6561 110.104C73.8201 110.104 72.5601 108.88 72.5601 107.188C72.5601 105.568 73.8201 104.308 75.6561 104.308C77.4921 104.308 78.7521 105.568 78.7521 107.188ZM75.6561 95.0558C77.0961 95.0558 78.2121 96.0278 78.2121 97.4318C78.2121 98.8358 77.1321 99.8078 75.6561 99.8078C74.1801 99.8078 73.1001 98.8358 73.1001 97.4318C73.1001 96.0278 74.2161 95.0558 75.6561 95.0558ZM109.525 102.652C109.525 95.8478 105.637 89.7998 98.5808 89.7998C91.4888 89.7998 87.6008 95.8478 87.6008 102.652C87.6008 109.456 91.4888 115.504 98.5808 115.504C105.637 115.504 109.525 109.456 109.525 102.652ZM102.829 102.652C102.829 106 101.533 109.276 98.5808 109.276C95.5928 109.276 94.2968 106 94.2968 102.652C94.2968 99.3038 95.5928 96.0278 98.5808 96.0278C101.533 96.0278 102.829 99.3038 102.829 102.652ZM124.381 96.0278C124.381 92.6078 121.609 89.9438 118.045 89.9438C114.481 89.9438 111.709 92.6078 111.709 96.0278C111.709 99.4478 114.481 102.112 118.045 102.112C121.609 102.112 124.381 99.4478 124.381 96.0278ZM120.133 96.0278C120.133 97.2878 119.233 98.1518 118.045 98.1518C116.857 98.1518 115.957 97.2878 115.957 96.0278C115.957 94.7678 116.857 93.9038 118.045 93.9038C119.233 93.9038 120.133 94.7678 120.133 96.0278ZM137.881 90.2678H132.373L114.013 115H119.521L137.881 90.2678ZM127.513 109.24C127.513 112.66 130.285 115.324 133.849 115.324C137.413 115.324 140.185 112.66 140.185 109.24C140.185 105.82 137.413 103.156 133.849 103.156C130.285 103.156 127.513 105.82 127.513 109.24ZM131.761 109.24C131.761 107.98 132.661 107.116 133.849 107.116C135.037 107.116 135.937 107.98 135.937 109.24C135.937 110.5 135.037 111.364 133.849 111.364C132.661 111.364 131.761 110.5 131.761 109.24Z" fill="white"/>
</g>
<defs>
<linearGradient id="paint0_linear_701_536" x1="-12.4346" y1="91.2143" x2="228.124" y2="92.0978" gradientUnits="userSpaceOnUse">
<stop stop-color="#36AA38"/>
<stop offset="1" stop-color="#2F36BD"/>
</linearGradient>
<clipPath id="clip0_701_536">
<rect width="204" height="204" fill="white"/>
</clipPath>
</defs>
</svg>
