<svg width="204" height="204" viewBox="0 0 204 204" fill="none" xmlns="http://www.w3.org/2000/svg">
<g clip-path="url(#clip0_701_539)">
<path d="M187.639 69.9019C193.092 67.8584 199.226 70.6141 200.696 76.2482C206.238 97.4861 204.802 120.051 196.436 140.546C186.737 164.31 168.435 183.543 145.182 194.409C121.928 205.275 95.4335 206.975 70.9823 199.169C46.5311 191.364 25.9213 174.628 13.2644 152.299C0.607559 129.97 -3.16595 103.69 2.69673 78.7014C8.55941 53.7132 23.6272 31.8538 44.8943 17.484C66.1614 3.11422 92.0643 -2.70957 117.435 1.17447C139.317 4.52427 159.415 14.8825 174.791 30.5464C178.869 34.7018 178.083 41.3803 173.529 45.0088C168.975 48.6372 162.385 47.827 158.195 43.783C146.212 32.2153 130.877 24.564 114.244 22.0177C94.1183 18.9366 73.5703 23.5564 56.6996 34.9556C39.829 46.3548 27.876 63.6953 23.2253 83.5178C18.5746 103.34 21.5681 124.188 31.6084 141.901C41.6488 159.614 57.9981 172.89 77.3945 179.082C96.791 185.274 117.809 183.925 136.255 175.305C154.701 166.686 169.219 151.429 176.914 132.578C183.273 116.999 184.584 99.9115 180.815 83.6878C179.497 78.0162 182.187 71.9455 187.639 69.9019Z" fill="url(#paint0_linear_701_539)"/>
<path d="M66.0801 99.1598C66.0801 103.804 69.3201 107.512 74.0361 107.512C74.6481 107.512 75.0801 107.44 75.3321 107.296L69.8961 115H77.5281L83.0721 106.18C84.4761 103.912 85.3761 101.32 85.3761 98.9798C85.3761 93.7238 81.3081 89.7998 75.7281 89.7998C70.2561 89.7998 66.0801 93.7598 66.0801 99.1598ZM72.4161 98.9078C72.4161 97.0718 73.8921 95.6678 75.7641 95.6678C77.6361 95.6678 79.0761 97.1078 79.0761 98.9438C79.0761 100.78 77.6361 102.184 75.7641 102.184C73.8921 102.184 72.4161 100.744 72.4161 98.9078ZM109.665 102.652C109.665 95.8478 105.777 89.7998 98.7214 89.7998C91.6294 89.7998 87.7414 95.8478 87.7414 102.652C87.7414 109.456 91.6294 115.504 98.7214 115.504C105.777 115.504 109.665 109.456 109.665 102.652ZM102.969 102.652C102.969 106 101.673 109.276 98.7214 109.276C95.7334 109.276 94.4374 106 94.4374 102.652C94.4374 99.3038 95.7334 96.0278 98.7214 96.0278C101.673 96.0278 102.969 99.3038 102.969 102.652ZM124.521 96.0278C124.521 92.6078 121.749 89.9438 118.185 89.9438C114.621 89.9438 111.849 92.6078 111.849 96.0278C111.849 99.4478 114.621 102.112 118.185 102.112C121.749 102.112 124.521 99.4478 124.521 96.0278ZM120.273 96.0278C120.273 97.2878 119.373 98.1518 118.185 98.1518C116.997 98.1518 116.097 97.2878 116.097 96.0278C116.097 94.7678 116.997 93.9038 118.185 93.9038C119.373 93.9038 120.273 94.7678 120.273 96.0278ZM138.021 90.2678H132.513L114.153 115H119.661L138.021 90.2678ZM127.653 109.24C127.653 112.66 130.425 115.324 133.989 115.324C137.553 115.324 140.325 112.66 140.325 109.24C140.325 105.82 137.553 103.156 133.989 103.156C130.425 103.156 127.653 105.82 127.653 109.24ZM131.901 109.24C131.901 107.98 132.801 107.116 133.989 107.116C135.177 107.116 136.077 107.98 136.077 109.24C136.077 110.5 135.177 111.364 133.989 111.364C132.801 111.364 131.901 110.5 131.901 109.24Z" fill="white"/>
</g>
<defs>
<linearGradient id="paint0_linear_701_539" x1="-12.4346" y1="91.2143" x2="228.124" y2="92.0978" gradientUnits="userSpaceOnUse">
<stop stop-color="#36AA38"/>
<stop offset="1" stop-color="#2F36BD"/>
</linearGradient>
<clipPath id="clip0_701_539">
<rect width="204" height="204" fill="white"/>
</clipPath>
</defs>
</svg>
