<svg width="204" height="204" viewBox="0 0 204 204" fill="none" xmlns="http://www.w3.org/2000/svg">
<g clip-path="url(#clip0_701_533)">
<path d="M187.639 69.9019C193.092 67.8584 199.226 70.6141 200.696 76.2482C206.238 97.4861 204.802 120.051 196.436 140.546C186.737 164.31 168.435 183.543 145.182 194.409C121.928 205.275 95.4335 206.975 70.9823 199.169C46.5311 191.364 25.9213 174.628 13.2644 152.299C0.607559 129.97 -3.16595 103.69 2.69673 78.7014C8.55941 53.7132 23.6272 31.8538 44.8943 17.484C66.1614 3.11422 92.0643 -2.70957 117.435 1.17447C139.317 4.52427 159.415 14.8825 174.791 30.5464C178.869 34.7018 178.083 41.3803 173.529 45.0088C168.975 48.6372 162.385 47.827 158.195 43.783C146.212 32.2153 130.877 24.564 114.244 22.0177C94.1183 18.9366 73.5703 23.5564 56.6996 34.9556C39.829 46.3548 27.876 63.6953 23.2253 83.5178C18.5746 103.34 21.5681 124.188 31.6084 141.901C41.6488 159.614 57.9981 172.89 77.3945 179.082C96.791 185.274 117.809 183.925 136.255 175.305C154.701 166.686 169.219 151.429 176.914 132.578C183.273 116.999 184.584 99.9115 180.815 83.6878C179.497 78.0162 182.187 71.9455 187.639 69.9019Z" fill="url(#paint0_linear_701_533)"/>
<path d="M66.0801 99.1598C66.0801 103.804 69.3201 107.512 74.0361 107.512C74.6481 107.512 75.0801 107.44 75.3321 107.296L69.8961 115H77.5281L83.0721 106.18C84.4761 103.912 85.3761 101.32 85.3761 98.9798C85.3761 93.7238 81.3081 89.7998 75.7281 89.7998C70.2561 89.7998 66.0801 93.7598 66.0801 99.1598ZM72.4161 98.9078C72.4161 97.0718 73.8921 95.6678 75.7641 95.6678C77.6361 95.6678 79.0761 97.1078 79.0761 98.9438C79.0761 100.78 77.6361 102.184 75.7641 102.184C73.8921 102.184 72.4161 100.744 72.4161 98.9078ZM94.3972 104.92C94.9372 104.056 95.9812 103.372 97.3132 103.372C99.1492 103.372 100.481 104.668 100.481 106.432C100.481 108.196 99.1492 109.6 97.3132 109.6C95.4052 109.6 94.3612 108.34 94.2532 107.224H87.9172C88.0252 112.228 91.6972 115.504 97.4212 115.504C102.785 115.504 106.889 111.508 106.889 106.108C106.889 101.644 103.685 97.9358 98.9692 97.9358C97.4212 97.9358 96.0532 98.3318 94.8652 99.0878L95.3332 95.9198H105.161V90.3038H90.3652L88.5292 103.696L94.3972 104.92ZM121.357 96.0278C121.357 92.6078 118.585 89.9438 115.021 89.9438C111.457 89.9438 108.685 92.6078 108.685 96.0278C108.685 99.4478 111.457 102.112 115.021 102.112C118.585 102.112 121.357 99.4478 121.357 96.0278ZM117.109 96.0278C117.109 97.2878 116.209 98.1518 115.021 98.1518C113.833 98.1518 112.933 97.2878 112.933 96.0278C112.933 94.7678 113.833 93.9038 115.021 93.9038C116.209 93.9038 117.109 94.7678 117.109 96.0278ZM134.857 90.2678H129.349L110.989 115H116.497L134.857 90.2678ZM124.489 109.24C124.489 112.66 127.261 115.324 130.825 115.324C134.389 115.324 137.161 112.66 137.161 109.24C137.161 105.82 134.389 103.156 130.825 103.156C127.261 103.156 124.489 105.82 124.489 109.24ZM128.737 109.24C128.737 107.98 129.637 107.116 130.825 107.116C132.013 107.116 132.913 107.98 132.913 109.24C132.913 110.5 132.013 111.364 130.825 111.364C129.637 111.364 128.737 110.5 128.737 109.24Z" fill="white"/>
</g>
<defs>
<linearGradient id="paint0_linear_701_533" x1="-12.4346" y1="91.2143" x2="228.124" y2="92.0978" gradientUnits="userSpaceOnUse">
<stop stop-color="#36AA38"/>
<stop offset="1" stop-color="#2F36BD"/>
</linearGradient>
<clipPath id="clip0_701_533">
<rect width="204" height="204" fill="white"/>
</clipPath>
</defs>
</svg>
